<?xml version="1.0" encoding="UTF-8" standalone="no"?>
<!DOCTYPE svg PUBLIC "-//W3C//DTD SVG 1.1//EN" "http://www.w3.org/Graphics/SVG/1.1/DTD/svg11.dtd">
<svg version="1.1" xmlns="http://www.w3.org/2000/svg" xmlns:xlink="http://www.w3.org/1999/xlink" preserveAspectRatio="xMidYMid meet" viewBox="0 0 640 640" width="640" height="640"><defs><path d="M571.2 0C609.2 0 640 30.8 640 68.8C640 183.04 640 455.73 640 569.66C640 608.51 608.51 640 569.66 640C455.73 640 183.45 640 69.31 640C31.03 640 0 608.97 0 570.69C0 456.55 0 183.86 0 69.83C0 31.26 31.26 0 69.83 0C183.86 0 456.96 0 571.2 0Z" id="b7699sMKId"></path><path d="M565.97 27.32C590.25 27.2 610 46.85 610 71.13C610 178.91 610 459.56 610 567.68C610 591.05 591.05 610 567.68 610C460.14 610 178.9 610 71.13 610C48.41 610 30 591.59 30 568.87C30 461.1 30 178.68 30 70.86C30 48.26 48.26 29.91 70.86 29.8C178.68 29.26 458.77 27.86 565.97 27.32Z" id="c7nGM7zXxk"></path><path d="M190.21 161.12C188.32 161.46 187.14 161.67 186.67 161.75C166.87 165.3 150.28 178.8 142.8 197.47C141.74 200.1 139.11 206.68 134.89 217.2L97.59 352.87L109.16 352.87L138.75 271.52C140.61 308.81 141.76 332.12 142.23 341.45C145.33 403.95 154.68 465.98 170.13 526.61C171.26 531.07 174.09 542.19 178.63 560L223.36 560C222.96 558.83 222.71 558.09 222.61 557.8C218.88 546.94 209.21 539.22 197.8 537.99C197.04 537.91 195.16 537.71 192.14 537.39L183.13 438.8L205.64 324.27L287.55 326.99L273.89 437.86L260 560L310 560C308.91 557.82 308.23 556.46 307.96 555.92C303.08 546.16 293.11 540 282.2 540C281.91 540 281.17 540 280 540L310 445L347.79 330.26L377.09 425.35L417.68 560L460 560C459.2 558.4 458.7 557.41 458.5 557.01C453.3 546.61 442.61 540.1 430.99 540.26C430.67 540.26 429.89 540.27 428.63 540.29L412.14 410L402.6 330C405.37 329.05 407.11 328.46 407.8 328.22C464.02 308.94 503.98 258.84 510.27 199.74C510.82 194.59 512.19 181.71 514.38 161.12L551.69 161.12C554.13 157.08 555.65 154.55 556.26 153.54C561.49 144.88 561.38 134.01 555.99 125.45C555.42 124.54 553.99 122.26 551.69 118.61L514.38 118.61L506.67 108.66L490.59 108.66C488.17 103.82 486.67 100.79 486.06 99.58C483.92 95.28 477.66 95.7 476.1 100.24C475.53 101.92 475.51 101.98 474.31 105.47C473.59 107.58 473.28 109.8 473.41 112.02C473.89 120.39 474.12 124.44 474.34 128.38C475.3 145.2 472.73 162.03 466.8 177.79C463.84 185.67 463.57 186.39 460.52 194.51C455.21 208.65 443.06 219.11 428.29 222.26C426.73 222.59 432.76 221.31 427.95 222.33C423.01 223.39 417.92 223.63 412.9 223.03C407.6 222.41 411.43 222.86 409.16 222.59C394.81 220.9 382.07 212.61 374.72 200.16C374.21 199.31 372.94 197.16 370.91 193.72L351.65 161.12C335.6 132.62 325.57 114.8 321.56 107.68C300.84 70.89 248.36 69.5 225.73 105.15C221 112.61 209.15 131.27 190.21 161.12Z" id="clL0Ypavq"></path><path d="M87.6 424.41L80 560L126.31 560C125.8 558.39 125.48 557.38 125.36 556.97C122.17 546.87 112.8 540 102.2 540C101.91 540 101.17 540 100 540L117.28 446.76L142.14 415.71C141.71 412.87 141.44 411.09 141.33 410.38C136.99 381.68 134.8 352.7 134.8 323.68C134.8 322.89 134.8 320.9 134.8 317.73L87.6 424.41Z" id="b2NXQBCDXw"></path><path d="M111.04 354.36C112.68 348.25 110.42 342.34 106 341.15C101.57 339.97 96.66 343.96 95.02 350.07C93.39 356.18 95.65 362.09 97.57 372.59C104.49 364.46 109.4 360.47 111.04 354.36Z" id="jaa0SCObN"></path></defs><g><g><g><use xlink:href="#b7699sMKId" opacity="1" fill="#039be5" fill-opacity="1"></use></g><g><use xlink:href="#c7nGM7zXxk" opacity="1" fill="#ffffff" fill-opacity="1"></use></g><g><g><use xlink:href="#clL0Ypavq" opacity="1" fill="#039be5" fill-opacity="1"></use><g><use xlink:href="#clL0Ypavq" opacity="1" fill-opacity="0" stroke="#ffffff" stroke-width="4" stroke-opacity="1"></use></g></g><g><use xlink:href="#b2NXQBCDXw" opacity="1" fill="#039be5" fill-opacity="1"></use><g><use xlink:href="#b2NXQBCDXw" opacity="1" fill-opacity="0" stroke="#ffffff" stroke-width="4" stroke-opacity="1"></use></g></g><g><use xlink:href="#jaa0SCObN" opacity="1" fill="#ff6fa5" fill-opacity="1"></use><g><use xlink:href="#jaa0SCObN" opacity="1" fill-opacity="0" stroke="#ffffff" stroke-width="4" stroke-opacity="1"></use></g></g></g></g></g></svg>